HIERARCHY
ROOT Hips
{
	OFFSET 0.000000 121.760803 0.000000
	CHANNELS 6 Xposition Yposition Zposition Xrotation Yrotation Zrotation 
	JOINT Spine
	{
		OFFSET 0.072000 7.257294 -0.789700
		CHANNELS 3 Xrotation Yrotation Zrotation
		JOINT Spine1
		{
			OFFSET 0.000000 12.508769 -0.658067
			CHANNELS 3 Xrotation Yrotation Zrotation
			JOINT Spine1_split
			{
				OFFSET 0.000000 12.508769 -0.658067
				CHANNELS 3 Xrotation Yrotation Zrotation
				JOINT Spine2
				{
					OFFSET 0.000000 12.508769 -0.658067
					CHANNELS 3 Xrotation Yrotation Zrotation
					JOINT Neck
					{
						OFFSET 0.000000 14.033295 7.520400
						CHANNELS 3 Xrotation Yrotation Zrotation
						JOINT Head
						{
							OFFSET 0.000000 8.198502 5.703100
							CHANNELS 3 Xrotation Yrotation Zrotation
							JOINT HeadTop_End
							{
								OFFSET 0.000000 17.760803 13.332701
								CHANNELS 3 Xrotation Yrotation Zrotation
								End Site
								{
									OFFSET 0.000000 0.000000 0.000000
								}
							}
						}
					}
					JOINT LeftShoulder
					{
						OFFSET 6.292450 5.785301 -0.669000
						CHANNELS 3 Xrotation Yrotation Zrotation
						JOINT LeftShoulder_split
						{
							OFFSET 6.292450 5.785301 -0.669000
							CHANNELS 3 Xrotation Yrotation Zrotation
							JOINT LeftArm
							{
								OFFSET 13.907140 -6.093903 1.965100
								CHANNELS 3 Xrotation Yrotation Zrotation
								JOINT LeftForeArm
								{
									OFFSET 34.140198 0.000000 0.000000
									CHANNELS 3 Xrotation Yrotation Zrotation
									JOINT LeftHand
									{
										OFFSET 40.960209 0.000000 0.000000
										CHANNELS 3 Xrotation Yrotation Zrotation
										JOINT LeftHandThumb1
										{
											OFFSET 10.006996 -7.170425 9.573125
											CHANNELS 3 Xrotation Yrotation Zrotation
											JOINT LeftHandThumb2
											{
												OFFSET 1.835007 -1.059448 1.059443
												CHANNELS 3 Xrotation Yrotation Zrotation
												JOINT LeftHandThumb3
												{
													OFFSET 2.112267 -1.219513 1.219518
													CHANNELS 3 Xrotation Yrotation Zrotation
													JOINT LeftHandThumb4
													{
														OFFSET 4.843811 -2.796570 2.796576
														CHANNELS 3 Xrotation Yrotation Zrotation
														End Site
														{
															OFFSET 0.000000 0.000000 0.000000
														}
													}
												}
											}
										}
										JOINT LeftHandIndex1
										{
											OFFSET 18.389847 -0.922348 4.596882
											CHANNELS 3 Xrotation Yrotation Zrotation
											JOINT LeftHandIndex2
											{
												OFFSET 4.711273 0.000000 0.000000
												CHANNELS 3 Xrotation Yrotation Zrotation
												JOINT LeftHandIndex3
												{
													OFFSET 2.886131 0.000000 0.000000
													CHANNELS 3 Xrotation Yrotation Zrotation
													JOINT LeftHandIndex4
													{
														OFFSET 6.145912 0.000000 0.000000
														CHANNELS 3 Xrotation Yrotation Zrotation
														End Site
														{
															OFFSET 0.000000 0.000000 0.000000
														}
													}
												}
											}
										}
										JOINT LeftHandMiddle1
										{
											OFFSET 18.013008 0.000000 0.000000
											CHANNELS 3 Xrotation Yrotation Zrotation
											JOINT LeftHandMiddle2
											{
												OFFSET 4.946693 0.000000 0.000000
												CHANNELS 3 Xrotation Yrotation Zrotation
												JOINT LeftHandMiddle3
												{
													OFFSET 3.342232 0.000000 0.000000
													CHANNELS 3 Xrotation Yrotation Zrotation
													JOINT LeftHandMiddle4
													{
														OFFSET 4.461754 0.000000 0.000000
														CHANNELS 3 Xrotation Yrotation Zrotation
														End Site
														{
															OFFSET 0.000000 0.000000 0.000000
														}
													}
												}
											}
										}
										JOINT LeftHandRing1
										{
											OFFSET 15.849892 -0.102921 -4.126150
											CHANNELS 3 Xrotation Yrotation Zrotation
											JOINT LeftHandRing2
											{
												OFFSET 3.527054 0.000000 0.000000
												CHANNELS 3 Xrotation Yrotation Zrotation
												JOINT LeftHandRing3
												{
													OFFSET 2.961098 0.000000 0.000000
													CHANNELS 3 Xrotation Yrotation Zrotation
													JOINT LeftHandRing4
													{
														OFFSET 4.927200 0.000000 0.000000
														CHANNELS 3 Xrotation Yrotation Zrotation
														End Site
														{
															OFFSET 0.000000 0.000000 0.000000
														}
													}
												}
											}
										}
										JOINT LeftHandPinky1
										{
											OFFSET 12.791824 -0.832031 -6.799156
											CHANNELS 3 Xrotation Yrotation Zrotation
											JOINT LeftHandPinky2
											{
												OFFSET 3.327133 0.000000 0.000000
												CHANNELS 3 Xrotation Yrotation Zrotation
												JOINT LeftHandPinky3
												{
													OFFSET 3.014900 0.000000 0.000000
													CHANNELS 3 Xrotation Yrotation Zrotation
													JOINT LeftHandPinky4
													{
														OFFSET 5.847786 0.000000 0.000000
														CHANNELS 3 Xrotation Yrotation Zrotation
														End Site
														{
															OFFSET 0.000000 0.000000 0.000000
														}
													}
												}
											}
										}
									}
								}
							}
						}
					}
					JOINT RightShoulder
					{
						OFFSET -6.292450 5.785301 -0.669000
						CHANNELS 3 Xrotation Yrotation Zrotation
						JOINT RightShoulder_split
						{
							OFFSET -6.292450 5.785301 -0.669000
							CHANNELS 3 Xrotation Yrotation Zrotation
							JOINT RightArm
							{
								OFFSET -13.907140 -6.093903 1.965100
								CHANNELS 3 Xrotation Yrotation Zrotation
								JOINT RightForeArm
								{
									OFFSET -34.140198 0.000000 0.000000
									CHANNELS 3 Xrotation Yrotation Zrotation
									JOINT RightHand
									{
										OFFSET -40.960209 0.000000 0.000000
										CHANNELS 3 Xrotation Yrotation Zrotation
										JOINT RightHandThumb1
										{
											OFFSET -10.007050 -7.170456 9.573117
											CHANNELS 3 Xrotation Yrotation Zrotation
											JOINT RightHandThumb2
											{
												OFFSET -1.835007 -1.059448 1.059443
												CHANNELS 3 Xrotation Yrotation Zrotation
												JOINT RightHandThumb3
												{
													OFFSET -2.112267 -1.219513 1.219518
													CHANNELS 3 Xrotation Yrotation Zrotation
													JOINT RightHandThumb4
													{
														OFFSET -4.843834 -2.796585 2.796590
														CHANNELS 3 Xrotation Yrotation Zrotation
														End Site
														{
															OFFSET 0.000000 0.000000 0.000000
														}
													}
												}
											}
										}
										JOINT RightHandIndex1
										{
											OFFSET -18.389870 -0.922424 4.596786
											CHANNELS 3 Xrotation Yrotation Zrotation
											JOINT RightHandIndex2
											{
												OFFSET -4.711273 0.000000 0.000000
												CHANNELS 3 Xrotation Yrotation Zrotation
												JOINT RightHandIndex3
												{
													OFFSET -2.886131 0.000000 0.000000
													CHANNELS 3 Xrotation Yrotation Zrotation
													JOINT RightHandIndex4
													{
														OFFSET -6.145920 0.000000 0.000000
														CHANNELS 3 Xrotation Yrotation Zrotation
														End Site
														{
															OFFSET 0.000000 0.000000 0.000000
														}
													}
												}
											}
										}
										JOINT RightHandMiddle1
										{
											OFFSET -18.013008 0.000000 0.000000
											CHANNELS 3 Xrotation Yrotation Zrotation
											JOINT RightHandMiddle2
											{
												OFFSET -4.946693 0.000000 0.000000
												CHANNELS 3 Xrotation Yrotation Zrotation
												JOINT RightHandMiddle3
												{
													OFFSET -3.342232 0.000000 0.000000
													CHANNELS 3 Xrotation Yrotation Zrotation
													JOINT RightHandMiddle4
													{
														OFFSET -4.461754 0.000000 0.000000
														CHANNELS 3 Xrotation Yrotation Zrotation
														End Site
														{
															OFFSET 0.000000 0.000000 0.000000
														}
													}
												}
											}
										}
										JOINT RightHandRing1
										{
											OFFSET -15.849876 -0.102936 -4.126237
											CHANNELS 3 Xrotation Yrotation Zrotation
											JOINT RightHandRing2
											{
												OFFSET -3.527054 0.000000 0.000000
												CHANNELS 3 Xrotation Yrotation Zrotation
												JOINT RightHandRing3
												{
													OFFSET -2.961098 0.000000 0.000000
													CHANNELS 3 Xrotation Yrotation Zrotation
													JOINT RightHandRing4
													{
														OFFSET -4.927200 0.000000 0.000000
														CHANNELS 3 Xrotation Yrotation Zrotation
														End Site
														{
															OFFSET 0.000000 0.000000 0.000000
														}
													}
												}
											}
										}
										JOINT RightHandPinky1
										{
											OFFSET -12.791786 -0.832077 -6.799222
											CHANNELS 3 Xrotation Yrotation Zrotation
											JOINT RightHandPinky2
											{
												OFFSET -3.327133 0.000000 0.000000
												CHANNELS 3 Xrotation Yrotation Zrotation
												JOINT RightHandPinky3
												{
													OFFSET -3.014900 0.000000 0.000000
													CHANNELS 3 Xrotation Yrotation Zrotation
													JOINT RightHandPinky4
													{
														OFFSET -5.847786 0.000000 0.000000
														CHANNELS 3 Xrotation Yrotation Zrotation
														End Site
														{
															OFFSET 0.000000 0.000000 0.000000
														}
													}
												}
											}
										}
									}
								}
							}
						}
					}
				}
			}
		}
	}
	JOINT LeftUpLeg
	{
		OFFSET 13.026900 -6.336304 -1.092800
		CHANNELS 3 Xrotation Yrotation Zrotation
		JOINT LeftLeg
		{
			OFFSET 0.524474 -46.096886 9.782700
			CHANNELS 3 Xrotation Yrotation Zrotation
			JOINT LeftFoot
			{
				OFFSET -0.524474 -53.427422 -12.948200
				CHANNELS 3 Xrotation Yrotation Zrotation
				JOINT LeftToeBase
				{
					OFFSET 0.192200 -14.009700 16.364100
					CHANNELS 3 Xrotation Yrotation Zrotation
					JOINT LeftToe_End
					{
						OFFSET -1.784700 -0.561700 9.474800
						CHANNELS 3 Xrotation Yrotation Zrotation
						End Site
						{
							OFFSET 0.000000 0.000000 0.000000
						}
					}
				}
			}
		}
	}
	JOINT RightUpLeg
	{
		OFFSET -12.883000 -6.336304 -1.092800
		CHANNELS 3 Xrotation Yrotation Zrotation
		JOINT RightLeg
		{
			OFFSET -0.524587 -46.096825 9.782800
			CHANNELS 3 Xrotation Yrotation Zrotation
			JOINT RightFoot
			{
				OFFSET 0.524587 -53.427383 -12.948300
				CHANNELS 3 Xrotation Yrotation Zrotation
				JOINT RightToeBase
				{
					OFFSET -0.192200 -14.009700 16.364100
					CHANNELS 3 Xrotation Yrotation Zrotation
					JOINT RightToe_End
					{
						OFFSET 1.784700 -0.561700 9.474800
						CHANNELS 3 Xrotation Yrotation Zrotation
						End Site
						{
							OFFSET 0.000000 0.000000 0.000000
						}
					}
				}
			}
		}
	}
}
MOTION
Frames: 4
Frame Time: 0.016667
4.128864 92.203163 19.069447 0.242162 -30.581503 -3.469617 11.843840 9.891009 -4.622174 2.723682 1.552885 -1.611383 0.000000 0.000000 0.000000 2.746773 1.530468 -1.591251 -10.034642 9.444445 7.085844 -0.518329 7.859692 -1.080338 0.000000 -0.000000 -0.000000 0.920481 1.300385 -6.093181 0.000000 0.000000 0.000000 -59.606392 1.454191 -47.058781 -0.000047 -109.149804 -0.000070 1.999409 -7.850082 -14.416077 -6.141218 -11.690800 -6.761686 9.914125 42.595525 3.409865 -0.422807 8.108084 27.509096 0.000000 -0.000001 -0.000000 0.255311 3.378222 -45.814327 5.654097 5.847751 -88.067448 2.162135 4.544816 -50.866355 0.000001 0.000001 0.000003 -0.461473 3.841597 -39.722679 6.450754 5.820355 -95.892871 2.182892 4.561561 -51.127719 -0.000001 -0.000000 0.000002 0.469716 4.966826 -39.799447 8.181035 5.368629 -113.502984 3.200490 5.218133 -63.022968 -0.000000 0.000001 -0.000002 -3.762423 9.063705 -45.253825 5.342530 5.829015 -85.005331 8.716850 5.103329 -119.369167 0.000000 0.000000 -0.000001 2.590447 21.406216 -4.318641 0.000000 0.000000 0.000000 -39.313473 17.241003 46.560406 0.000012 113.312470 -0.000018 -14.981738 10.510282 -8.958509 -7.341081 13.749674 7.412324 9.855748 -44.489110 -3.903281 -0.115769 -14.513078 -28.973857 -0.000001 0.000003 -0.000000 -0.124373 -2.384783 45.108874 4.500598 -4.654538 88.071171 1.723229 -3.618377 50.920109 0.000000 0.000002 -0.000000 -0.761621 -2.932903 39.031082 5.133885 -4.632757 95.881649 1.739745 -3.631706 51.181360 0.000001 -0.000001 0.000003 0.154758 -4.068815 39.122664 6.509727 -4.273601 113.462884 2.549588 -4.153921 63.067337 -0.000002 0.000001 -0.000002 -4.198875 -8.025510 44.637786 4.252910 -4.639626 85.014805 6.935973 -4.062629 119.322285 -0.000004 0.000000 -0.000000 -48.353494 -1.396332 22.262184 64.558067 1.033607 0.338547 -16.528790 -7.869286 -12.342360 0.025314 0.000004 -0.028748 0.000000 0.000000 -0.000000 -15.116360 -13.908328 -30.708978 50.051507 -4.502039 -7.041207 -8.618586 -8.488738 23.453497 -11.945755 -0.123413 2.669215 0.000000 0.000003 -0.000002 
4.105089 91.895348 17.914143 -0.379913 -32.335632 -3.331783 11.897604 9.648882 -4.467616 2.734886 1.491814 -1.567835 0.000000 0.000000 0.000000 2.758105 1.469817 -1.547379 -9.735262 9.809000 6.855221 -0.083820 9.175668 -1.657999 0.000001 0.000000 0.000000 0.919439 1.163406 -5.967904 0.000000 0.000000 0.000000 -60.124455 1.960619 -46.784159 -0.000056 -108.853148 -0.000052 2.167991 -7.474093 -14.181518 -6.141216 -11.690803 -6.761685 9.914125 42.595525 3.409876 -0.422807 8.108084 27.509096 -0.000001 0.000001 0.000002 0.255314 3.378220 -45.814327 5.654101 5.847748 -88.067448 2.162138 4.544815 -50.866359 -0.000000 0.000002 0.000000 -0.461472 3.841598 -39.722679 6.450755 5.820354 -95.892871 2.182886 4.561561 -51.127719 -0.000002 0.000001 0.000003 0.469719 4.966824 -39.799447 8.181036 5.368623 -113.502984 3.200488 5.218136 -63.022968 -0.000000 -0.000000 0.000003 -3.762422 9.063699 -45.253825 5.342535 5.829007 -85.005331 8.716848 5.103330 -119.369167 -0.000003 0.000003 -0.000000 2.580091 21.227869 -4.233256 0.000000 0.000000 0.000000 -40.248864 17.716344 48.393922 0.000091 112.648240 -0.000084 -15.571930 11.037962 -9.454332 -7.341085 13.749675 7.412326 9.855744 -44.489120 -3.903276 -0.115768 -14.513080 -28.973861 0.000002 0.000000 0.000001 -0.124373 -2.384781 45.108874 4.500595 -4.654538 88.071178 1.723224 -3.618376 50.920105 -0.000000 0.000001 0.000001 -0.761621 -2.932904 39.031078 5.133888 -4.632755 95.881649 1.739745 -3.631705 51.181360 0.000000 0.000000 0.000000 0.154757 -4.068814 39.122658 6.509729 -4.273602 113.462884 2.549587 -4.153922 63.067337 0.000001 -0.000002 0.000001 -4.198876 -8.025509 44.637786 4.252904 -4.639627 85.014805 6.935973 -4.062632 119.322285 -0.000000 0.000000 0.000001 -47.891688 -1.308799 23.199135 64.597347 1.537559 -0.139070 -16.108414 -7.667648 -12.778392 0.026368 0.000000 -0.029954 0.000000 -0.000001 -0.000000 -15.883154 -13.256137 -31.193870 51.143268 -4.891402 -6.471029 -9.846786 -10.563998 24.487061 -10.160394 -0.030574 1.343777 0.000001 0.000001 -0.000002 
4.033683 91.636223 16.720688 -0.918884 -33.888339 -3.151022 11.906757 9.389143 -4.314414 2.734731 1.427247 -1.530578 0.000000 0.000000 0.000000 2.757623 1.406165 -1.509498 -9.369962 10.141566 6.579431 0.350804 10.288568 -2.099689 0.000001 0.000000 -0.000000 0.848222 1.234088 -5.801386 0.000000 0.000000 0.000000 -60.427380 2.491308 -46.713067 -0.000089 -108.401031 -0.000086 2.365843 -7.630693 -14.447797 -6.141211 -11.690808 -6.761676 9.914125 42.595522 3.409868 -0.422809 8.108087 27.509089 0.000000 0.000003 -0.000002 0.255316 3.378218 -45.814324 5.654100 5.847749 -88.067448 2.162137 4.544818 -50.866359 -0.000001 -0.000001 -0.000001 -0.461471 3.841594 -39.722676 6.450755 5.820348 -95.892878 2.182888 4.561563 -51.127723 0.000000 -0.000000 0.000004 0.469718 4.966820 -39.799441 8.181033 5.368625 -113.502984 3.200490 5.218136 -63.022968 -0.000000 -0.000002 0.000000 -3.762420 9.063698 -45.253821 5.342533 5.829012 -85.005331 8.716851 5.103331 -119.369167 0.000000 -0.000002 0.000001 2.551274 20.915491 -4.132410 0.000000 0.000000 0.000000 -41.238333 18.236697 50.341421 0.000002 112.007746 0.000023 -15.687961 11.432301 -9.498037 -7.341084 13.749673 7.412325 9.855744 -44.489120 -3.903270 -0.115773 -14.513080 -28.973854 0.000000 -0.000001 0.000001 -0.124376 -2.384784 45.108878 4.500593 -4.654540 88.071178 1.723229 -3.618379 50.920105 -0.000000 -0.000001 -0.000002 -0.761623 -2.932905 39.031075 5.133887 -4.632751 95.881649 1.739746 -3.631706 51.181360 0.000002 0.000003 0.000000 0.154759 -4.068815 39.122658 6.509726 -4.273599 113.462884 2.549586 -4.153929 63.067330 -0.000001 0.000001 -0.000002 -4.198876 -8.025510 44.637783 4.252911 -4.639627 85.014805 6.935978 -4.062636 119.322285 0.000002 0.000000 -0.000000 -47.507009 -1.185090 24.066730 64.517229 1.963107 -0.582377 -15.578656 -7.515044 -13.122317 0.021439 0.000010 -0.024473 0.000000 -0.000001 0.000000 -16.451841 -12.673738 -31.057369 51.871752 -5.286560 -6.515860 -11.260744 -12.963322 25.613377 -8.339156 0.000013 0.018724 0.000000 0.000001 -0.000003 
3.915984 91.399338 15.453259 -1.397536 -35.254237 -2.904903 11.904369 9.124795 -4.180752 2.730771 1.361152 -1.496503 0.000000 0.000000 0.000000 2.753147 1.341174 -1.474809 -8.933135 10.442610 6.282900 0.750985 11.295837 -2.539361 0.000000 -0.000000 -0.000000 0.768325 1.378894 -5.675012 0.000000 0.000000 0.000000 -60.613926 2.997523 -46.737994 0.000166 -107.926572 0.000145 2.461862 -7.936545 -14.879197 -6.141214 -11.690805 -6.761684 9.914131 42.595529 3.409868 -0.422807 8.108089 27.509089 0.000002 0.000001 -0.000000 0.255314 3.378214 -45.814324 5.654099 5.847749 -88.067448 2.162136 4.544817 -50.866359 -0.000002 0.000001 -0.000001 -0.461471 3.841594 -39.722676 6.450757 5.820353 -95.892871 2.182893 4.561562 -51.127719 0.000000 0.000001 0.000001 0.469715 4.966820 -39.799447 8.181036 5.368625 -113.502984 3.200492 5.218133 -63.022968 0.000001 0.000000 -0.000000 -3.762423 9.063697 -45.253828 5.342530 5.829014 -85.005331 8.716850 5.103325 -119.369167 -0.000001 -0.000001 0.000000 2.521650 20.583216 -4.040481 0.000000 0.000000 0.000000 -42.285411 18.731714 52.282161 0.000074 111.411314 -0.000060 -15.585588 11.755239 -9.399766 -7.341082 13.749671 7.412330 9.855748 -44.489113 -3.903271 -0.115770 -14.513081 -28.973857 0.000001 -0.000001 0.000000 -0.124374 -2.384781 45.108878 4.500598 -4.654537 88.071178 1.723227 -3.618374 50.920109 0.000000 0.000002 -0.000001 -0.761621 -2.932905 39.031075 5.133889 -4.632751 95.881649 1.739744 -3.631706 51.181360 0.000002 0.000001 -0.000000 0.154759 -4.068813 39.122658 6.509727 -4.273599 113.462884 2.549588 -4.153925 63.067330 -0.000003 0.000002 -0.000004 -4.198876 -8.025512 44.637783 4.252907 -4.639627 85.014805 6.935976 -4.062632 119.322285 -0.000002 0.000001 0.000001 -47.202348 -1.046214 24.834780 64.323566 2.327633 -0.979945 -14.919513 -7.406903 -13.410515 0.015283 0.000009 -0.017515 0.000000 0.000000 -0.000000 -17.035520 -12.119466 -30.864378 52.505092 -5.716009 -6.663775 -12.926459 -14.822332 26.433693 -7.072341 -0.000013 -0.000001 0.000000 -0.000001 0.000001 
